<svg width="18" height="18" viewBox="0 0 18 18" fill="none" xmlns="http://www.w3.org/2000/svg">
<path d="M0.4663 1.97501L8.63146 8.94665L0.410753 15.9657C0.280599 16.0759 0.177294 16.207 0.106794 16.3515C0.0362948 16.496 0 16.651 0 16.8075C0 16.964 0.0362948 17.119 0.106794 17.2635C0.177294 17.4079 0.280599 17.5391 0.410753 17.6493C0.539845 17.7604 0.693428 17.8486 0.86264 17.9088C1.03187 17.969 1.21337 18 1.39668 18C1.58 18 1.7615 17.969 1.93071 17.9088C2.09994 17.8486 2.25353 17.7604 2.3826 17.6493L11.5892 9.78847C11.7194 9.67824 11.8227 9.5471 11.8932 9.40263C11.9637 9.25814 12 9.10318 12 8.94665C12 8.79013 11.9637 8.63517 11.8932 8.49068C11.8227 8.3462 11.7194 8.21506 11.5892 8.10484L10.6033 7.32232L2.43815 0.350691C2.30907 0.239605 2.15548 0.151354 1.98627 0.0911808C1.81704 0.0310097 1.63554 0 1.45223 0C1.26891 0 1.08741 0.0310097 0.918201 0.0911808C0.748971 0.151354 0.59539 0.239605 0.4663 0.350691C0.224157 0.570547 0.0893457 0.861067 0.0893457 1.16285C0.0893457 1.46463 0.224157 1.75515 0.4663 1.97501Z" fill="currentColor"/>
<path d="M6.4663 1.97501L14.6315 8.94665L6.41075 15.9657C6.2806 16.0759 6.17729 16.207 6.10679 16.3515C6.03629 16.496 6 16.651 6 16.8075C6 16.964 6.03629 17.119 6.10679 17.2635C6.17729 17.4079 6.2806 17.5391 6.41075 17.6493C6.53985 17.7604 6.69343 17.8486 6.86264 17.9088C7.03187 17.969 7.21337 18 7.39668 18C7.58 18 7.7615 17.969 7.93071 17.9088C8.09994 17.8486 8.25353 17.7604 8.3826 17.6493L17.5892 9.78847C17.7194 9.67824 17.8227 9.5471 17.8932 9.40263C17.9637 9.25814 18 9.10318 18 8.94665C18 8.79013 17.9637 8.63517 17.8932 8.49068C17.8227 8.3462 17.7194 8.21506 17.5892 8.10484L16.6033 7.32232L8.43815 0.350691C8.30907 0.239605 8.15548 0.151354 7.98627 0.0911808C7.81704 0.0310097 7.63554 0 7.45223 0C7.26891 0 7.08741 0.0310097 6.9182 0.0911808C6.74897 0.151354 6.59539 0.239605 6.4663 0.350691C6.22416 0.570547 6.08935 0.861067 6.08935 1.16285C6.08935 1.46463 6.22416 1.75515 6.4663 1.97501Z" fill="currentColor"/>
</svg>
